<svg version="1.1" xmlns="http://www.w3.org/2000/svg" viewBox="0 0 32 32" id="basket"><path d="M16.5 10.5h1v1h-1zm2 0h1v1h-1z"/><path d="M30.5 5.5H7.907l-.114-1.008A4.497 4.497 0 003.322.501H2.001c-.827 0-1.5.673-1.5 1.5s.673 1.5 1.5 1.5h1.322c.764 0 1.404.572 1.49 1.331l1.841 16.197a6.493 6.493 0 002.171 4.123 2.97 2.97 0 00-.324 1.349v4a1 1 0 001 1h1a1 1 0 001-1v-4c.651 0 1.201-.419 1.408-1h11.092c.363 0 .716-.038 1.063-.095.178.63.752 1.095 1.438 1.095v4a1 1 0 001 1h1a1 1 0 001-1v-4A3.008 3.008 0 0028.151 24a6.49 6.49 0 002.351-4.999v-9.5a1 1 0 001-1v-2c0-.551-.448-1-1-1zm-1.213 15H24.5v-5h5V19c0 .52-.078 1.023-.213 1.5zm-5.787 0h-5v-5h5zm0 4h-5v-3h5zm-12-4H9.612l-.568-5H11.5zm1-5h5v5h-5zm-1 6v1.877A3.47 3.47 0 019.835 21.5zm1 2.39V21.5h5v3h-4.592a1.5 1.5 0 00-.408-.61zm6-9.39v-1h3v-4h2v5zm2-2h-5v-3h5zm-3 1v1h-5v-5h2v4zm-6 1H8.931l-.568-5H11.5zm-3.854 6.414L5.806 4.717A2.498 2.498 0 003.323 2.5H2.001a.5.5 0 010-1h1.321A3.498 3.498 0 016.8 4.605l1.841 16.197a4.456 4.456 0 001.643 2.959 2.986 2.986 0 00-.864.584 5.493 5.493 0 01-1.772-3.431zM11.5 25.5a1 1 0 00-1 1l.001 4H9.5v-4c0-1.103.897-2 2-2a.5.5 0 010 1zm17 1v4h-1v-4a1 1 0 00-1-1 .497.497 0 01-.465-.331 6.495 6.495 0 001.184-.529 2.002 2.002 0 011.282 1.86zm-4-2.026V21.5h4.393a5.505 5.505 0 01-4.393 2.974zm5-9.974h-5v-5h5zm1-6H8.248l-.227-2H30.5z"/></svg>