<svg version="1.1" xmlns="http://www.w3.org/2000/svg" viewBox="0 0 32 32" id="compass"><path d="M16.552 4.251V3.073a1.6 1.6 0 10-1.068 0v1.178c-7.546.29-13.472 6.568-13.327 14.119s6.308 13.596 13.86 13.596 13.714-6.045 13.86-13.596S24.097 4.542 16.55 4.251zm-.534-3.212a.533.533 0 110 1.066.533.533 0 010-1.066zm0 29.857c-7.067 0-12.796-5.729-12.796-12.796S8.951 5.304 16.018 5.304 28.814 11.033 28.814 18.1c-.008 7.064-5.732 12.788-12.796 12.796z"/><path d="M24.009 9.368l-9.803 6.786a1.076 1.076 0 01-.135.135l-6.785 9.802a.534.534 0 00.742.742l9.803-6.786c.041-.049.086-.094.135-.135l6.785-9.802a.534.534 0 00-.742-.742zM9.834 24.285l4.754-6.866 2.112 2.112zm7.62-5.508l-2.112-2.112 6.862-4.749z"/></svg>