<svg version="1.1" xmlns="http://www.w3.org/2000/svg" viewBox="0 0 32 32" id="internet"><path d="M28.415 5.923q-.086-.109-.18-.218c-2.9-3.442-7.19-5.633-11.994-5.7h-.011C16.152.002 16.078 0 16 0s-.152.003-.23.005A15.92 15.92 0 003.753 5.72l-.02.025c-.04.043-.079.09-.115.138l-.003.004A15.855 15.855 0 00.001 15.999a15.89 15.89 0 003.629 10.13l-.022-.027c.003.003.006.006.007.01.039.053.077.099.118.143l-.001-.001.002.003c2.9 3.464 7.203 5.67 12.024 5.737h.011c.153.005.306.005.46 0a15.918 15.918 0 0011.985-5.676l.02-.024q.094-.109.18-.218c2.232-2.724 3.585-6.243 3.585-10.078s-1.353-7.354-3.607-10.106l.022.028zm-3.543 9.64a26.557 26.557 0 00-1.065-7.195l.047.188a17.386 17.386 0 004.117-1.919l-.07.042a14.942 14.942 0 013.215 8.864v.021zM16.438.897c2.672.275 4.997 3.035 6.34 7.075-1.894.541-4.073.866-6.323.895h-.017zm-.875 7.97a25.137 25.137 0 01-6.517-.938l.177.043c1.342-4.04 3.668-6.8 6.34-7.075zm0 .875v5.82h-7.56a26.126 26.126 0 011.008-6.939l-.045.184c1.971.565 4.238.905 6.58.935h.017zm0 6.696v5.82c-2.359.03-4.627.37-6.781.979l.184-.044c-.587-2.019-.937-4.341-.962-6.74v-.015zm0 6.695v7.97c-2.672-.275-4.997-3.035-6.34-7.075 1.894-.541 4.073-.866 6.323-.895h.017zm.875 0c2.267.029 4.446.354 6.517.938l-.177-.043c-1.343 4.04-3.668 6.8-6.34 7.075zm0-.875v-5.82h7.56a26.148 26.148 0 01-1.008 6.942l.045-.184c-1.971-.568-4.239-.909-6.581-.937h-.016zm0-6.695v-5.82a25.861 25.861 0 006.78-.982l-.182.044c.587 2.019.936 4.342.962 6.743v.015zm10.899-9.566a16.229 16.229 0 01-3.628 1.695l-.117.033c-.96-2.855-2.402-5.125-4.12-6.447 3.151.764 5.838 2.429 7.851 4.704l.014.016zm-14.81-4.719c-1.717 1.323-3.16 3.593-4.12 6.447a16.7 16.7 0 01-3.815-1.766l.07.041a15.132 15.132 0 017.762-4.701l.104-.021zM4.098 6.675a17.07 17.07 0 003.924 1.848l.123.035c-.621 2.093-.991 4.5-1.017 6.99v.015H.883a14.996 14.996 0 013.239-8.919l-.024.031zm3.03 9.763a26.535 26.535 0 001.065 7.192l-.047-.188v.003a17.272 17.272 0 00-4.117 1.921l.069-.041a14.948 14.948 0 01-3.215-8.866v-.021zM4.662 26a16.405 16.405 0 013.626-1.692l.119-.033c.96 2.855 2.402 5.125 4.12 6.447-3.152-.764-5.839-2.43-7.851-4.706L4.662 26zm14.811 4.723c1.718-1.323 3.16-3.593 4.12-6.448a16.46 16.46 0 013.813 1.768l-.068-.04a15.158 15.158 0 01-7.761 4.699l-.104.021zm8.429-5.4a17.018 17.018 0 00-3.924-1.843l-.123-.034c.621-2.093.991-4.502 1.017-6.993v-.015h6.245a14.985 14.985 0 01-3.239 8.916l.024-.031z"/></svg>