<svg version="1.1" xmlns="http://www.w3.org/2000/svg" viewBox="0 0 32 32" id="safe"><path d="M28.267 0H3.734A3.738 3.738 0 00.001 3.733v24.533a3.738 3.738 0 003.733 3.733h24.533A3.738 3.738 0 0032 28.266V3.733A3.738 3.738 0 0028.267 0zm2.666 28.267a2.67 2.67 0 01-2.667 2.667H3.733a2.67 2.67 0 01-2.667-2.667V3.734a2.67 2.67 0 012.667-2.667h24.533a2.67 2.67 0 012.667 2.667z"/><path d="M27.2 3.2H4.8a1.6 1.6 0 00-1.6 1.6v.533a1.6 1.6 0 100 3.2v14.933a1.6 1.6 0 100 3.2v1.6c0 .295.239.533.533.533H27.2a1.6 1.6 0 001.6-1.6v-22.4a1.6 1.6 0 00-1.6-1.6zM2.667 6.933c0-.295.239-.533.533-.533h1.067a.533.533 0 110 1.066H3.2a.533.533 0 01-.533-.533zm0 18.134c0-.295.239-.533.533-.533h1.067a.533.533 0 110 1.066H3.2a.533.533 0 01-.533-.533zM27.733 27.2a.533.533 0 01-.533.533H4.267v-1.067a1.6 1.6 0 100-3.2V8.533a1.6 1.6 0 100-3.2V4.8c0-.295.239-.533.533-.533h22.4c.295 0 .533.239.533.533z"/><path d="M10.133 15.467H11.2v1.067h-1.067zm-2.133 0h1.067v1.067H8zm4.267 0h1.067v1.067h-1.067zm0 2.133h1.067v1.067h-1.067zm-2.134 0H11.2v1.067h-1.067zM8 17.6h1.067v1.067H8zm0 2.133h1.067V20.8H8zm2.133 0H11.2V20.8h-1.067zm2.134 0h1.067V20.8h-1.067zm1.066-8.533H8a.533.533 0 00-.533.533v2.133c0 .295.239.533.533.533h5.333a.533.533 0 00.533-.533v-2.133a.533.533 0 00-.533-.533zm-.533 2.133H8.533v-1.067H12.8zM23.467 9.6v-.533a1.6 1.6 0 10-3.2 0V9.6a.533.533 0 00-.533.533v2.133c0 .295.239.533.533.533h3.2a.533.533 0 00.533-.533v-2.133a.533.533 0 00-.533-.533zm-2.134-.533a.533.533 0 111.066 0V9.6h-1.067zm1.6 2.666H20.8v-1.067h2.133z"/><path d="M21.867 5.333a4.805 4.805 0 00-4.8 4.8H16V9.6a.533.533 0 00-.533-.533h-9.6a.533.533 0 00-.533.533v12.8c0 .295.239.533.533.533h9.6A.533.533 0 0016 22.4v-1.067h4.267v1.6a1.607 1.607 0 001.6 1.6 1.6 1.6 0 001.6-1.6v-2.137c.098-.073.191-.153.278-.239l.008-.007a2.658 2.658 0 00.356-.454c.072-.112.136-.229.191-.351l.027-.053a2.747 2.747 0 00.159-.551c.03-.156.046-.315.048-.474a2.67 2.67 0 00-2.133-2.613v-1.152a4.8 4.8 0 00-.533-9.568zM17.19 11.2a4.806 4.806 0 004.143 3.702V16H16v-4.8zm-2.257 10.667H6.4V10.134h8.533zm1.067-4.8h3.747a2.645 2.645 0 00-.493 1.067h-2.187v1.067h2.187c.082.388.251.753.493 1.067H16zm5.867 6.4a.52.52 0 01-.38-.164.513.513 0 01-.153-.37V21.28a2.584 2.584 0 001 .006c.022-.004.045-.003.067-.007v1.654a.533.533 0 01-.533.533zm1.6-4.8a1.588 1.588 0 01-.051.381c-.008.033-.02.064-.03.096a1.635 1.635 0 01-.111.267c-.016.029-.03.059-.048.087a1.58 1.58 0 01-.533.533c-.024.015-.051.028-.076.041-.09.048-.185.088-.282.118-.03.01-.06.021-.091.028a1.555 1.555 0 01-.378.049 1.6 1.6 0 111.6-1.6zm-1.6-4.8a3.733 3.733 0 110-7.465 3.733 3.733 0 010 7.465z"/></svg>