<svg version="1.1" xmlns="http://www.w3.org/2000/svg" viewBox="0 0 32 32" id="settings"><path d="M16 10.062c-3.274 0-5.938 2.664-5.938 5.938s2.664 5.938 5.938 5.938 5.938-2.664 5.938-5.938-2.664-5.938-5.938-5.938zm0 10c-2.24 0-4.063-1.822-4.063-4.063s1.822-4.063 4.063-4.063 4.063 1.822 4.063 4.063-1.822 4.063-4.063 4.063z"/><path d="M31.246 13.029l-3.857-.771a11.796 11.796 0 00-.721-1.733l.031.067 2.182-3.271a.937.937 0 00-.116-1.183l-2.901-2.903a.934.934 0 00-1.187-.115l.003-.002-3.272 2.183a11.351 11.351 0 00-1.582-.666l-.085-.025L18.97.753a.94.94 0 00-.919-.754h-4.102a.938.938 0 00-.918.748l-.001.006-.771 3.857c-.655.217-1.205.45-1.733.722l.067-.031-3.272-2.183a.934.934 0 00-1.183.117L3.237 6.138a.937.937 0 00-.114 1.187l-.002-.003 2.182 3.271c-.24.461-.473 1.012-.665 1.582l-.025.085-3.857.771a.94.94 0 00-.754.919v4.102c0 .453.321.831.748.918l.006.001 3.857.771c.216.655.45 1.205.721 1.734l-.031-.067-2.182 3.271a.937.937 0 00.116 1.183l2.901 2.903a.934.934 0 001.187.115l-.003.002 3.272-2.183c.461.24 1.012.474 1.582.666l.085.025.771 3.857a.94.94 0 00.919.754h4.102c.453 0 .83-.321.918-.748l.001-.006.771-3.857c.654-.217 1.205-.45 1.733-.722l-.067.031 3.272 2.183a.934.934 0 001.183-.117l2.901-2.903a.937.937 0 00.114-1.187l.002.003-2.182-3.271c.24-.461.473-1.012.665-1.581l.025-.085 3.857-.771a.939.939 0 00.753-.919V13.95a.938.938 0 00-.748-.918l-.006-.001zm-1.121 4.254l-3.654.731a.94.94 0 00-.718.664l-.002.007a10.133 10.133 0 01-.958 2.313.934.934 0 00.037.988l-.002-.003 2.067 3.1-1.814 1.815-3.101-2.069a.936.936 0 00-.99-.032l.005-.002c-.718.41-1.496.733-2.313.959a.941.941 0 00-.668.713l-.001.006-.731 3.653h-2.565l-.731-3.653a.941.941 0 00-.662-.718l-.007-.002a10.11 10.11 0 01-2.313-.959.934.934 0 00-.989.036l.003-.002-3.101 2.069-1.814-1.815 2.067-3.1a.935.935 0 00.033-.988l.002.005a10.133 10.133 0 01-.958-2.313.94.94 0 00-.714-.669l-.006-.001-3.654-.731V14.72l3.654-.731a.94.94 0 00.718-.664l.002-.007c.224-.811.546-1.589.958-2.313a.934.934 0 00-.037-.988l.002.003-2.067-3.1 1.814-1.815 3.101 2.069a.936.936 0 00.99.032l-.005.002c.718-.41 1.496-.733 2.313-.959a.941.941 0 00.668-.713l.001-.006.731-3.653h2.565l.731 3.653a.941.941 0 00.662.718l.007.002c.817.226 1.595.549 2.313.959a.934.934 0 00.989-.036l-.003.002 3.101-2.069 1.814 1.815-2.067 3.1a.935.935 0 00-.033.988l-.002-.005c.412.724.734 1.502.958 2.313.096.34.371.598.714.669l.006.001 3.654.731v2.565z"/></svg>