<svg version="1.1" xmlns="http://www.w3.org/2000/svg" viewBox="0 0 32 32" id="shuffle"><path d="M31.64 23.231l-6-5c-.298-.25-.714-.3-1.064-.138a1.004 1.004 0 00-.576.906v3h-1.674a3.98 3.98 0 01-3.392-1.88l-6.476-10.36a7.951 7.951 0 00-6.784-3.76H0v4h5.674a3.98 3.98 0 013.392 1.88l6.476 10.36a7.956 7.956 0 006.784 3.76H24v3a1 1 0 00.57.903l.006.003c.124.059.27.094.424.094.23 0 .458-.078.64-.232l6-5c.23-.19.36-.472.36-.768s-.13-.578-.36-.768z"/><path d="M31.64 7.231l-6-5a1.001 1.001 0 00-1.64.768v3h-1.674a7.951 7.951 0 00-6.784 3.76l-.362.58 2.358 3.774 1.396-2.234a3.98 3.98 0 013.392-1.88H24v3a1 1 0 001 1 1 1 0 00.64-.232l6-5c.23-.19.36-.472.36-.768s-.13-.578-.36-.768zM10.462 17.885l-1.394 2.234a3.984 3.984 0 01-3.394 1.88H0v4h5.674a7.956 7.956 0 006.784-3.76l.362-.58-2.358-3.774z"/></svg>