<svg aria-hidden="true" style="position:absolute;width:0;height:0" xmlns="http://www.w3.org/2000/svg" overflow="hidden"><defs><symbol id="icon-basket" viewBox="0 0 32 32"><path d="M16.5 10.5h1v1h-1zm2 0h1v1h-1z"/><path d="M30.5 5.5H7.907l-.114-1.008A4.497 4.497 0 003.322.501H2.001c-.827 0-1.5.673-1.5 1.5s.673 1.5 1.5 1.5h1.322c.764 0 1.404.572 1.49 1.331l1.841 16.197a6.493 6.493 0 002.171 4.123 2.97 2.97 0 00-.324 1.349v4a1 1 0 001 1h1a1 1 0 001-1v-4c.651 0 1.201-.419 1.408-1h11.092c.363 0 .716-.038 1.063-.095.178.63.752 1.095 1.438 1.095v4a1 1 0 001 1h1a1 1 0 001-1v-4A3.008 3.008 0 0028.151 24a6.49 6.49 0 002.351-4.999v-9.5a1 1 0 001-1v-2c0-.551-.448-1-1-1zm-1.213 15H24.5v-5h5V19c0 .52-.078 1.023-.213 1.5zm-5.787 0h-5v-5h5zm0 4h-5v-3h5zm-12-4H9.612l-.568-5H11.5zm1-5h5v5h-5zm-1 6v1.877A3.47 3.47 0 019.835 21.5zm1 2.39V21.5h5v3h-4.592a1.5 1.5 0 00-.408-.61zm6-9.39v-1h3v-4h2v5zm2-2h-5v-3h5zm-3 1v1h-5v-5h2v4zm-6 1H8.931l-.568-5H11.5zm-3.854 6.414L5.806 4.717A2.498 2.498 0 003.323 2.5H2.001a.5.5 0 010-1h1.321A3.498 3.498 0 016.8 4.605l1.841 16.197a4.456 4.456 0 001.643 2.959 2.986 2.986 0 00-.864.584 5.493 5.493 0 01-1.772-3.431zM11.5 25.5a1 1 0 00-1 1l.001 4H9.5v-4c0-1.103.897-2 2-2a.5.5 0 010 1zm17 1v4h-1v-4a1 1 0 00-1-1 .497.497 0 01-.465-.331 6.495 6.495 0 001.184-.529 2.002 2.002 0 011.282 1.86zm-4-2.026V21.5h4.393a5.505 5.505 0 01-4.393 2.974zm5-9.974h-5v-5h5zm1-6H8.248l-.227-2H30.5z"/></symbol><symbol id="icon-clock" viewBox="0 0 32 32"><path d="M16 0C7.164 0 0 7.164 0 16s7.164 16 16 16 16-7.164 16-16S24.836 0 16 0zm0 29.333c-7.364 0-13.333-5.97-13.333-13.333S8.637 2.667 16 2.667 29.333 8.637 29.333 16 23.363 29.333 16 29.333z"/><path d="M16 5.333c-.736 0-1.333.597-1.333 1.333v8h-4a1.333 1.333 0 000 2.666H16c.736 0 1.333-.597 1.333-1.333V6.666c0-.736-.597-1.333-1.333-1.333z"/></symbol><symbol id="icon-compass" viewBox="0 0 32 32"><path d="M16.552 4.251V3.073a1.6 1.6 0 10-1.068 0v1.178c-7.546.29-13.472 6.568-13.327 14.119s6.308 13.596 13.86 13.596 13.714-6.045 13.86-13.596S24.097 4.542 16.55 4.251zm-.534-3.212a.533.533 0 110 1.066.533.533 0 010-1.066zm0 29.857c-7.067 0-12.796-5.729-12.796-12.796S8.951 5.304 16.018 5.304 28.814 11.033 28.814 18.1c-.008 7.064-5.732 12.788-12.796 12.796z"/><path d="M24.009 9.368l-9.803 6.786a1.076 1.076 0 01-.135.135l-6.785 9.802a.534.534 0 00.742.742l9.803-6.786c.041-.049.086-.094.135-.135l6.785-9.802a.534.534 0 00-.742-.742zM9.834 24.285l4.754-6.866 2.112 2.112zm7.62-5.508l-2.112-2.112 6.862-4.749z"/></symbol><symbol id="icon-fast-forward" viewBox="0 0 32 32"><path d="M31.566 15.176l-16-11A.998.998 0 0014 5v7.724L1.566 4.176A.999.999 0 000 5v22a1.001 1.001 0 001.566.824L14 19.276V27a1.001 1.001 0 001.566.824l16-11a1.001 1.001 0 000-1.648zM2 25.099V6.902l12 8.25v1.698L2 25.1zm14 0V6.902l13.235 9.099z"/></symbol><symbol id="icon-heart" viewBox="0 0 32 32"><path d="M16 30.22c-.456 0-.895-.165-1.237-.465a374.562 374.562 0 00-3.639-3.13l-.006-.005c-3.224-2.747-6.008-5.12-7.945-7.457-2.165-2.613-3.174-5.09-3.174-7.796 0-2.629.902-5.055 2.539-6.831C4.195 2.739 6.467 1.75 8.939 1.75c1.847 0 3.539.584 5.028 1.736A10.288 10.288 0 0116 5.609c.6-.83 1.281-1.541 2.033-2.123 1.489-1.152 3.181-1.736 5.028-1.736 2.471 0 4.744.99 6.401 2.786C31.099 6.312 32 8.737 32 11.367c0 2.706-1.008 5.184-3.174 7.796-1.937 2.337-4.721 4.71-7.944 7.457-1.102.938-2.35 2.002-3.645 3.136A1.88 1.88 0 0116 30.22zM8.939 3.624c-1.942 0-3.725.775-5.023 2.182-1.317 1.428-2.042 3.403-2.042 5.56 0 2.276.846 4.312 2.743 6.6 1.833 2.212 4.56 4.536 7.717 7.227l.006.005c1.104.941 2.355 2.007 3.657 3.146a430.966 430.966 0 013.669-3.151c3.157-2.691 5.884-5.014 7.717-7.226 1.896-2.289 2.742-4.324 2.742-6.6 0-2.157-.725-4.132-2.042-5.56-1.297-1.407-3.081-2.182-5.023-2.182-1.422 0-2.728.452-3.881 1.344-1.028.795-1.743 1.8-2.163 2.503-.216.362-.596.577-1.016.577s-.801-.216-1.016-.577c-.419-.703-1.135-1.708-2.163-2.503-1.153-.892-2.459-1.344-3.881-1.344z"/></symbol><symbol id="icon-internet" viewBox="0 0 32 32"><path d="M28.415 5.923q-.086-.109-.18-.218c-2.9-3.442-7.19-5.633-11.994-5.7h-.011C16.152.002 16.078 0 16 0s-.152.003-.23.005A15.92 15.92 0 003.753 5.72l-.02.025c-.04.043-.079.09-.115.138l-.003.004A15.855 15.855 0 00.001 15.999a15.89 15.89 0 003.629 10.13l-.022-.027c.003.003.006.006.007.01.039.053.077.099.118.143l-.001-.001.002.003c2.9 3.464 7.203 5.67 12.024 5.737h.011c.153.005.306.005.46 0a15.918 15.918 0 0011.985-5.676l.02-.024q.094-.109.18-.218c2.232-2.724 3.585-6.243 3.585-10.078s-1.353-7.354-3.607-10.106l.022.028zm-3.543 9.64a26.557 26.557 0 00-1.065-7.195l.047.188a17.386 17.386 0 004.117-1.919l-.07.042a14.942 14.942 0 013.215 8.864v.021zM16.438.897c2.672.275 4.997 3.035 6.34 7.075-1.894.541-4.073.866-6.323.895h-.017zm-.875 7.97a25.137 25.137 0 01-6.517-.938l.177.043c1.342-4.04 3.668-6.8 6.34-7.075zm0 .875v5.82h-7.56a26.126 26.126 0 011.008-6.939l-.045.184c1.971.565 4.238.905 6.58.935h.017zm0 6.696v5.82c-2.359.03-4.627.37-6.781.979l.184-.044c-.587-2.019-.937-4.341-.962-6.74v-.015zm0 6.695v7.97c-2.672-.275-4.997-3.035-6.34-7.075 1.894-.541 4.073-.866 6.323-.895h.017zm.875 0c2.267.029 4.446.354 6.517.938l-.177-.043c-1.343 4.04-3.668 6.8-6.34 7.075zm0-.875v-5.82h7.56a26.148 26.148 0 01-1.008 6.942l.045-.184c-1.971-.568-4.239-.909-6.581-.937h-.016zm0-6.695v-5.82a25.861 25.861 0 006.78-.982l-.182.044c.587 2.019.936 4.342.962 6.743v.015zm10.899-9.566a16.229 16.229 0 01-3.628 1.695l-.117.033c-.96-2.855-2.402-5.125-4.12-6.447 3.151.764 5.838 2.429 7.851 4.704l.014.016zm-14.81-4.719c-1.717 1.323-3.16 3.593-4.12 6.447a16.7 16.7 0 01-3.815-1.766l.07.041a15.132 15.132 0 017.762-4.701l.104-.021zM4.098 6.675a17.07 17.07 0 003.924 1.848l.123.035c-.621 2.093-.991 4.5-1.017 6.99v.015H.883a14.996 14.996 0 013.239-8.919l-.024.031zm3.03 9.763a26.535 26.535 0 001.065 7.192l-.047-.188v.003a17.272 17.272 0 00-4.117 1.921l.069-.041a14.948 14.948 0 01-3.215-8.866v-.021zM4.662 26a16.405 16.405 0 013.626-1.692l.119-.033c.96 2.855 2.402 5.125 4.12 6.447-3.152-.764-5.839-2.43-7.851-4.706L4.662 26zm14.811 4.723c1.718-1.323 3.16-3.593 4.12-6.448a16.46 16.46 0 013.813 1.768l-.068-.04a15.158 15.158 0 01-7.761 4.699l-.104.021zm8.429-5.4a17.018 17.018 0 00-3.924-1.843l-.123-.034c.621-2.093.991-4.502 1.017-6.993v-.015h6.245a14.985 14.985 0 01-3.239 8.916l.024-.031z"/></symbol><symbol id="icon-mail" viewBox="0 0 32 32"><path d="M29.188 3.813H2.813A2.818 2.818 0 000 6.626v18.75a2.818 2.818 0 002.813 2.813h26.375a2.818 2.818 0 002.813-2.813V6.626a2.818 2.818 0 00-2.813-2.813zm-.389 1.875L16.06 18.428 3.21 5.688h25.589zM1.875 24.987V7.005l9.03 8.953-9.03 9.03zm1.326 1.326l9.036-9.036 3.166 3.139a.938.938 0 001.323-.003l3.087-3.087 8.987 8.987H3.202zm26.924-1.326L21.138 16l8.987-8.987v17.973z"/></symbol><symbol id="icon-phone" viewBox="0 0 32 32"><path d="M29.432 21.004c-1.959 0-3.883-.306-5.706-.909-.909-.31-1.944-.069-2.537.535l-3.598 2.716c-4.173-2.227-6.743-4.797-8.94-8.938l2.636-3.504a2.585 2.585 0 00.636-2.621 18.192 18.192 0 01-.912-5.715A2.57 2.57 0 008.443 0H2.566A2.57 2.57 0 00-.002 2.568C-.002 18.797 13.201 32 29.43 32a2.57 2.57 0 002.568-2.568v-5.86a2.57 2.57 0 00-2.568-2.568zm.79 8.428a.79.79 0 01-.79.79c-15.249 0-27.654-12.405-27.654-27.654a.79.79 0 01.79-.79h5.877a.79.79 0 01.79.79c0 2.15.338 4.26.998 6.26.092.295.017.601-.281.912l-3.056 4.047a.884.884 0 00-.081.943l-.002-.005c2.494 4.902 5.524 7.932 10.461 10.462.3.157.668.124.941-.082l4.14-3.136a.785.785 0 01.811-.186l-.006-.002a19.959 19.959 0 006.273 1.002.79.79 0 01.79.79v5.86z"/></symbol><symbol id="icon-safe-box" viewBox="0 0 32 32"><path d="M28.267 0H3.734A3.738 3.738 0 00.001 3.733v24.533a3.738 3.738 0 003.733 3.733h24.533A3.738 3.738 0 0032 28.266V3.733A3.738 3.738 0 0028.267 0zm2.666 28.267a2.67 2.67 0 01-2.667 2.667H3.733a2.67 2.67 0 01-2.667-2.667V3.734a2.67 2.67 0 012.667-2.667h24.533a2.67 2.67 0 012.667 2.667z"/><path d="M27.2 3.2H4.8a1.6 1.6 0 00-1.6 1.6v.533a1.6 1.6 0 100 3.2v14.933a1.6 1.6 0 100 3.2v1.6c0 .295.239.533.533.533H27.2a1.6 1.6 0 001.6-1.6v-22.4a1.6 1.6 0 00-1.6-1.6zM2.667 6.933c0-.295.239-.533.533-.533h1.067a.533.533 0 110 1.066H3.2a.533.533 0 01-.533-.533zm0 18.134c0-.295.239-.533.533-.533h1.067a.533.533 0 110 1.066H3.2a.533.533 0 01-.533-.533zM27.733 27.2a.533.533 0 01-.533.533H4.267v-1.067a1.6 1.6 0 100-3.2V8.533a1.6 1.6 0 100-3.2V4.8c0-.295.239-.533.533-.533h22.4c.295 0 .533.239.533.533z"/><path d="M10.133 15.467H11.2v1.067h-1.067zm-2.133 0h1.067v1.067H8zm4.267 0h1.067v1.067h-1.067zm0 2.133h1.067v1.067h-1.067zm-2.134 0H11.2v1.067h-1.067zM8 17.6h1.067v1.067H8zm0 2.133h1.067V20.8H8zm2.133 0H11.2V20.8h-1.067zm2.134 0h1.067V20.8h-1.067zm1.066-8.533H8a.533.533 0 00-.533.533v2.133c0 .295.239.533.533.533h5.333a.533.533 0 00.533-.533v-2.133a.533.533 0 00-.533-.533zm-.533 2.133H8.533v-1.067H12.8zM23.467 9.6v-.533a1.6 1.6 0 10-3.2 0V9.6a.533.533 0 00-.533.533v2.133c0 .295.239.533.533.533h3.2a.533.533 0 00.533-.533v-2.133a.533.533 0 00-.533-.533zm-2.134-.533a.533.533 0 111.066 0V9.6h-1.067zm1.6 2.666H20.8v-1.067h2.133z"/><path d="M21.867 5.333a4.805 4.805 0 00-4.8 4.8H16V9.6a.533.533 0 00-.533-.533h-9.6a.533.533 0 00-.533.533v12.8c0 .295.239.533.533.533h9.6A.533.533 0 0016 22.4v-1.067h4.267v1.6a1.607 1.607 0 001.6 1.6 1.6 1.6 0 001.6-1.6v-2.137c.098-.073.191-.153.278-.239l.008-.007a2.658 2.658 0 00.356-.454c.072-.112.136-.229.191-.351l.027-.053a2.747 2.747 0 00.159-.551c.03-.156.046-.315.048-.474a2.67 2.67 0 00-2.133-2.613v-1.152a4.8 4.8 0 00-.533-9.568zM17.19 11.2a4.806 4.806 0 004.143 3.702V16H16v-4.8zm-2.257 10.667H6.4V10.134h8.533zm1.067-4.8h3.747a2.645 2.645 0 00-.493 1.067h-2.187v1.067h2.187c.082.388.251.753.493 1.067H16zm5.867 6.4a.52.52 0 01-.38-.164.513.513 0 01-.153-.37V21.28a2.584 2.584 0 001 .006c.022-.004.045-.003.067-.007v1.654a.533.533 0 01-.533.533zm1.6-4.8a1.588 1.588 0 01-.051.381c-.008.033-.02.064-.03.096a1.635 1.635 0 01-.111.267c-.016.029-.03.059-.048.087a1.58 1.58 0 01-.533.533c-.024.015-.051.028-.076.041-.09.048-.185.088-.282.118-.03.01-.06.021-.091.028a1.555 1.555 0 01-.378.049 1.6 1.6 0 111.6-1.6zm-1.6-4.8a3.733 3.733 0 110-7.465 3.733 3.733 0 010 7.465z"/></symbol><symbol id="icon-settings" viewBox="0 0 32 32"><path d="M16 10.062c-3.274 0-5.938 2.664-5.938 5.938s2.664 5.938 5.938 5.938 5.938-2.664 5.938-5.938-2.664-5.938-5.938-5.938zm0 10c-2.24 0-4.063-1.822-4.063-4.063s1.822-4.063 4.063-4.063 4.063 1.822 4.063 4.063-1.822 4.063-4.063 4.063z"/><path d="M31.246 13.029l-3.857-.771a11.796 11.796 0 00-.721-1.733l.031.067 2.182-3.271a.937.937 0 00-.116-1.183l-2.901-2.903a.934.934 0 00-1.187-.115l.003-.002-3.272 2.183a11.351 11.351 0 00-1.582-.666l-.085-.025L18.97.753a.94.94 0 00-.919-.754h-4.102a.938.938 0 00-.918.748l-.001.006-.771 3.857c-.655.217-1.205.45-1.733.722l.067-.031-3.272-2.183a.934.934 0 00-1.183.117L3.237 6.138a.937.937 0 00-.114 1.187l-.002-.003 2.182 3.271c-.24.461-.473 1.012-.665 1.582l-.025.085-3.857.771a.94.94 0 00-.754.919v4.102c0 .453.321.831.748.918l.006.001 3.857.771c.216.655.45 1.205.721 1.734l-.031-.067-2.182 3.271a.937.937 0 00.116 1.183l2.901 2.903a.934.934 0 001.187.115l-.003.002 3.272-2.183c.461.24 1.012.474 1.582.666l.085.025.771 3.857a.94.94 0 00.919.754h4.102c.453 0 .83-.321.918-.748l.001-.006.771-3.857c.654-.217 1.205-.45 1.733-.722l-.067.031 3.272 2.183a.934.934 0 001.183-.117l2.901-2.903a.937.937 0 00.114-1.187l.002.003-2.182-3.271c.24-.461.473-1.012.665-1.581l.025-.085 3.857-.771a.939.939 0 00.753-.919V13.95a.938.938 0 00-.748-.918l-.006-.001zm-1.121 4.254l-3.654.731a.94.94 0 00-.718.664l-.002.007a10.133 10.133 0 01-.958 2.313.934.934 0 00.037.988l-.002-.003 2.067 3.1-1.814 1.815-3.101-2.069a.936.936 0 00-.99-.032l.005-.002c-.718.41-1.496.733-2.313.959a.941.941 0 00-.668.713l-.001.006-.731 3.653h-2.565l-.731-3.653a.941.941 0 00-.662-.718l-.007-.002a10.11 10.11 0 01-2.313-.959.934.934 0 00-.989.036l.003-.002-3.101 2.069-1.814-1.815 2.067-3.1a.935.935 0 00.033-.988l.002.005a10.133 10.133 0 01-.958-2.313.94.94 0 00-.714-.669l-.006-.001-3.654-.731V14.72l3.654-.731a.94.94 0 00.718-.664l.002-.007c.224-.811.546-1.589.958-2.313a.934.934 0 00-.037-.988l.002.003-2.067-3.1 1.814-1.815 3.101 2.069a.936.936 0 00.99.032l-.005.002c.718-.41 1.496-.733 2.313-.959a.941.941 0 00.668-.713l.001-.006.731-3.653h2.565l.731 3.653a.941.941 0 00.662.718l.007.002c.817.226 1.595.549 2.313.959a.934.934 0 00.989-.036l-.003.002 3.101-2.069 1.814 1.815-2.067 3.1a.935.935 0 00-.033.988l-.002-.005c.412.724.734 1.502.958 2.313.096.34.371.598.714.669l.006.001 3.654.731v2.565z"/></symbol><symbol id="icon-shuffle" viewBox="0 0 32 32"><path d="M31.64 23.231l-6-5c-.298-.25-.714-.3-1.064-.138a1.004 1.004 0 00-.576.906v3h-1.674a3.98 3.98 0 01-3.392-1.88l-6.476-10.36a7.951 7.951 0 00-6.784-3.76H0v4h5.674a3.98 3.98 0 013.392 1.88l6.476 10.36a7.956 7.956 0 006.784 3.76H24v3a1 1 0 00.57.903l.006.003c.124.059.27.094.424.094.23 0 .458-.078.64-.232l6-5c.23-.19.36-.472.36-.768s-.13-.578-.36-.768z"/><path d="M31.64 7.231l-6-5a1.001 1.001 0 00-1.64.768v3h-1.674a7.951 7.951 0 00-6.784 3.76l-.362.58 2.358 3.774 1.396-2.234a3.98 3.98 0 013.392-1.88H24v3a1 1 0 001 1 1 1 0 00.64-.232l6-5c.23-.19.36-.472.36-.768s-.13-.578-.36-.768zM10.462 17.885l-1.394 2.234a3.984 3.984 0 01-3.394 1.88H0v4h5.674a7.956 7.956 0 006.784-3.76l.362-.58-2.358-3.774z"/></symbol></defs></svg>