<!-- Generated by IcoMoon.io -->
<svg version="1.1" xmlns="http://www.w3.org/2000/svg" width="47" height="40" viewBox="0 0 32 32" id="forward">
<title>fast-forward</title>
<path d="M31.566 15.176l-16-11c-0.307-0.21-0.704-0.235-1.032-0.061-0.328 0.173-0.534 0.514-0.534 0.885v7.724l-12.434-8.548c-0.307-0.21-0.705-0.235-1.032-0.061-0.328 0.173-0.534 0.514-0.534 0.885v22c0 0.371 0.206 0.712 0.534 0.885 0.146 0.077 0.307 0.115 0.466 0.115 0.198 0 0.396-0.060 0.566-0.176l12.434-8.548v7.724c0 0.371 0.206 0.712 0.534 0.885 0.146 0.077 0.307 0.115 0.466 0.115 0.198 0 0.396-0.060 0.566-0.176l16-11c0.271-0.186 0.434-0.495 0.434-0.824s-0.162-0.638-0.434-0.824zM2 25.099v-18.197l12 8.25v1.698c0 0-12 8.25-12 8.25zM16 25.099v-18.197l13.235 9.099z" fill="white"></path>
</svg>
