<!-- Generated by IcoMoon.io -->
<svg version="1.1" xmlns="http://www.w3.org/2000/svg" viewBox="0 0 32 32" id="basket">
<title>basket</title>
<path d="M16.5 10.5h1v1h-1z"></path>
<path d="M18.5 10.5h1v1h-1z"></path>
<path d="M30.5 5.5h-22.593l-0.114-1.008c-0.258-2.275-2.181-3.991-4.471-3.991h-1.321c-0.827 0-1.5 0.673-1.5 1.5s0.673 1.5 1.5 1.5h1.322c0.764 0 1.404 0.572 1.49 1.331l1.841 16.197c0.181 1.59 0.968 3.067 2.171 4.123-0.206 0.406-0.324 0.863-0.324 1.349v4c0 0.552 0.448 1 1 1h1c0.552 0 1-0.448 1-1v-4c0.651 0 1.201-0.419 1.408-1h11.092c0.363 0 0.716-0.038 1.063-0.095 0.178 0.63 0.752 1.095 1.438 1.095v4c0 0.552 0.448 1 1 1h1c0.552 0 1-0.448 1-1v-4c0-1.024-0.528-1.956-1.351-2.501 1.435-1.194 2.351-2.991 2.351-4.999v-9.5c0.552 0 1-0.448 1-1v-2c0-0.551-0.448-1-1-1zM29.287 20.5h-4.787v-5h5v3.5c0 0.52-0.078 1.023-0.213 1.5zM23.5 20.5h-5v-5h5zM23.5 24.5h-5v-3h5zM11.5 20.5h-1.888l-0.568-5h2.456zM12.5 15.5h5v5h-5zM11.5 21.5v1.877c-0.773-0.395-1.363-1.070-1.665-1.877zM12.5 23.89v-2.39h5v3h-4.592c-0.085-0.237-0.225-0.445-0.408-0.61zM18.5 14.5v-1h3v-4h2v5zM20.5 12.5h-5v-3h5zM17.5 13.5v1h-5v-5h2v4zM11.5 14.5h-2.569l-0.568-5h3.137zM7.646 20.914l-1.84-16.197c-0.144-1.264-1.211-2.217-2.483-2.217h-1.322c-0.276 0-0.5-0.224-0.5-0.5s0.224-0.5 0.5-0.5h1.321c1.782 0 3.277 1.335 3.478 3.105l1.841 16.197c0.134 1.182 0.745 2.235 1.643 2.959-0.322 0.143-0.614 0.342-0.864 0.584-0.982-0.89-1.622-2.115-1.772-3.431zM11.5 25.5c-0.552 0-1 0.448-1 1l0.001 4h-1.001v-4c0-1.103 0.897-2 2-2 0.275 0 0.5 0.224 0.5 0.5s-0.225 0.5-0.5 0.5zM28.5 26.5v4h-1v-4c0-0.552-0.448-1-1-1-0.215 0-0.395-0.139-0.465-0.331 0.415-0.137 0.811-0.316 1.184-0.529 0.761 0.294 1.282 1.030 1.282 1.86zM24.5 24.474v-2.974h4.393c-0.84 1.637-2.474 2.8-4.393 2.974zM29.5 14.5h-5v-5h5zM30.5 8.5h-22.252l-0.227-2h22.479z"></path>
</svg>
