<!-- Generated by IcoMoon.io -->
<svg version="1.1" xmlns="http://www.w3.org/2000/svg" viewBox="0 0 32 32" id="clock">
<title>clock</title>
<path d="M16 0c-8.836 0-16 7.164-16 16s7.164 16 16 16 16-7.164 16-16-7.164-16-16-16zM16 29.333c-7.364 0-13.333-5.97-13.333-13.333s5.97-13.333 13.333-13.333 13.333 5.97 13.333 13.333-5.97 13.333-13.333 13.333z"></path>
<path d="M16 5.333c-0.736 0-1.333 0.597-1.333 1.333v8h-4c-0.736 0-1.333 0.597-1.333 1.333s0.597 1.333 1.333 1.333h5.333c0.736 0 1.333-0.597 1.333-1.333v-9.333c0-0.736-0.597-1.333-1.333-1.333z"></path>
</svg>
