<!-- Generated by IcoMoon.io -->
<svg version="1.1" xmlns="http://www.w3.org/2000/svg" viewBox="0 0 32 32" id="compass">
<title>compass</title>
<path d="M16.552 4.251v-1.178c0.735-0.26 1.175-1.011 1.043-1.779s-0.798-1.329-1.577-1.329c-0.779 0-1.445 0.561-1.577 1.329s0.309 1.519 1.043 1.779v1.178c-7.546 0.29-13.472 6.568-13.327 14.119s6.308 13.596 13.86 13.596c7.552 0 13.714-6.045 13.86-13.596s-5.78-13.828-13.327-14.119zM16.018 1.039c0.295 0 0.533 0.239 0.533 0.533s-0.239 0.533-0.533 0.533c-0.294 0-0.533-0.239-0.533-0.533s0.239-0.533 0.533-0.533zM16.018 30.896c-7.067 0-12.796-5.729-12.796-12.796s5.729-12.796 12.796-12.796 12.796 5.729 12.796 12.796c-0.008 7.064-5.732 12.788-12.796 12.796z"></path>
<path d="M24.009 9.368l-9.803 6.786c-0.041 0.049-0.086 0.094-0.135 0.135l-6.785 9.802c-0.146 0.212-0.12 0.498 0.062 0.68s0.468 0.208 0.68 0.062l9.803-6.786c0.041-0.049 0.086-0.094 0.135-0.135l6.785-9.802c0.146-0.211 0.12-0.497-0.062-0.68s-0.468-0.208-0.68-0.062zM9.834 24.285l4.754-6.866 2.112 2.112zM17.454 18.777l-2.112-2.112 6.862-4.749z"></path>
</svg>
