<!-- Generated by IcoMoon.io -->
<svg version="1.1" xmlns="http://www.w3.org/2000/svg" viewBox="0 0 32 32" id="internet">
<title>internet</title>
<path d="M28.415 5.923q-0.086-0.109-0.18-0.218c-2.9-3.442-7.19-5.633-11.994-5.7l-0.011-0c-0.078-0.003-0.152-0.005-0.23-0.005s-0.152 0.003-0.23 0.005c-4.833 0.068-9.137 2.275-12.017 5.715l-0.020 0.025c-0.040 0.043-0.079 0.090-0.115 0.138l-0.003 0.004c-0.002 0.004-0.004 0.007-0.007 0.010l-0 0c-2.246 2.727-3.607 6.256-3.607 10.102s1.362 7.375 3.629 10.13l-0.022-0.027c0.003 0.003 0.006 0.006 0.007 0.010l0 0c0.039 0.053 0.077 0.099 0.118 0.143l-0.001-0.001 0.002 0.003c2.9 3.464 7.203 5.67 12.024 5.737l0.011 0c0.153 0.005 0.306 0.005 0.46 0 4.815-0.067 9.105-2.258 11.985-5.676l0.020-0.024q0.094-0.109 0.18-0.218c2.232-2.724 3.585-6.243 3.585-10.078s-1.353-7.354-3.607-10.106l0.022 0.028zM24.872 15.563c-0.027-2.506-0.397-4.914-1.065-7.195l0.047 0.188c1.543-0.494 2.883-1.131 4.117-1.919l-0.070 0.042c1.923 2.427 3.119 5.507 3.215 8.864l0 0.021zM16.438 0.897c2.672 0.275 4.997 3.035 6.34 7.075-1.894 0.541-4.073 0.866-6.323 0.895l-0.017 0zM15.563 8.867c-2.267-0.029-4.446-0.354-6.517-0.938l0.177 0.043c1.342-4.040 3.668-6.8 6.34-7.075zM15.563 9.742v5.82h-7.56c0.026-2.414 0.376-4.736 1.008-6.939l-0.045 0.184c1.971 0.565 4.238 0.905 6.58 0.935l0.017 0zM15.563 16.438v5.82c-2.359 0.030-4.627 0.37-6.781 0.979l0.184-0.044c-0.587-2.019-0.937-4.341-0.962-6.74l-0-0.015zM15.563 23.133v7.97c-2.672-0.275-4.997-3.035-6.34-7.075 1.894-0.541 4.073-0.866 6.323-0.895l0.017-0zM16.438 23.133c2.267 0.029 4.446 0.354 6.517 0.938l-0.177-0.043c-1.343 4.040-3.668 6.8-6.34 7.075zM16.438 22.258v-5.82h7.56c-0.026 2.415-0.376 4.738-1.008 6.942l0.045-0.184c-1.971-0.568-4.239-0.909-6.581-0.937l-0.016-0zM16.438 15.563v-5.82c2.359-0.029 4.627-0.369 6.78-0.982l-0.182 0.044c0.587 2.019 0.936 4.342 0.962 6.743l0 0.015zM27.337 5.997c-1.077 0.682-2.316 1.268-3.628 1.695l-0.117 0.033c-0.96-2.855-2.402-5.125-4.12-6.447 3.151 0.764 5.838 2.429 7.851 4.704l0.014 0.016zM12.527 1.278c-1.717 1.323-3.16 3.593-4.12 6.447-1.429-0.461-2.669-1.046-3.815-1.766l0.070 0.041c2.026-2.293 4.713-3.959 7.762-4.701l0.104-0.021zM4.098 6.675c1.164 0.748 2.504 1.387 3.924 1.848l0.123 0.035c-0.621 2.093-0.991 4.5-1.017 6.99l-0 0.015h-6.245c0.096-3.378 1.292-6.46 3.239-8.919l-0.024 0.031zM7.128 16.438c0.027 2.505 0.397 4.912 1.065 7.192l-0.047-0.188v0.003c-1.543 0.493-2.883 1.131-4.117 1.921l0.069-0.041c-1.923-2.427-3.119-5.509-3.215-8.866l-0-0.021zM4.662 26c1.076-0.679 2.316-1.264 3.626-1.692l0.119-0.033c0.96 2.855 2.402 5.125 4.12 6.447-3.152-0.764-5.839-2.43-7.851-4.706l-0.014-0.016zM19.473 30.723c1.718-1.323 3.16-3.593 4.12-6.448 1.429 0.459 2.668 1.045 3.813 1.768l-0.068-0.040c-2.027 2.291-4.714 3.956-7.761 4.699l-0.104 0.021zM27.902 25.323c-1.164-0.747-2.504-1.384-3.924-1.843l-0.123-0.034c0.621-2.093 0.991-4.502 1.017-6.993l0-0.015h6.245c-0.096 3.378-1.292 6.458-3.239 8.916l0.024-0.031z"></path>
</svg>
