<!-- Generated by IcoMoon.io -->
<svg version="1.1" xmlns="http://www.w3.org/2000/svg"  viewBox="0 0 32 32" id="phone">
<title>phone</title>
<path d="M29.432 21.004c-1.959 0-3.883-0.306-5.706-0.909-0.909-0.31-1.944-0.069-2.537 0.535l-3.598 2.716c-4.173-2.227-6.743-4.797-8.94-8.938l2.636-3.504c0.685-0.684 0.931-1.683 0.636-2.621-0.605-1.832-0.912-3.755-0.912-5.715 0-1.416-1.152-2.568-2.568-2.568h-5.877c-1.416 0-2.568 1.152-2.568 2.568 0 16.229 13.203 29.432 29.432 29.432 1.416 0 2.568-1.152 2.568-2.568v-5.86c-0-1.416-1.152-2.568-2.568-2.568zM30.222 29.432c0 0.436-0.354 0.79-0.79 0.79-15.249 0-27.654-12.405-27.654-27.654 0-0.436 0.354-0.79 0.79-0.79h5.877c0.436 0 0.79 0.354 0.79 0.79 0 2.15 0.338 4.26 0.998 6.26 0.092 0.295 0.017 0.601-0.281 0.912l-3.056 4.047c-0.112 0.147-0.18 0.334-0.18 0.536 0 0.147 0.036 0.285 0.099 0.407l-0.002-0.005c2.494 4.902 5.524 7.932 10.461 10.462 0.3 0.157 0.668 0.124 0.941-0.082l4.14-3.136c0.142-0.141 0.338-0.229 0.554-0.229 0.090 0 0.177 0.015 0.257 0.043l-0.006-0.002c2.013 0.665 4.123 1.002 6.273 1.002 0.436 0 0.79 0.354 0.79 0.79v5.86z"></path>
</svg>
