<!-- Generated by IcoMoon.io -->
<svg version="1.1" xmlns="http://www.w3.org/2000/svg" viewBox="0 0 32 32" id="safe">
<title>safe-box</title>
<path d="M28.267 0h-24.533c-2.061 0.003-3.731 1.673-3.733 3.733v24.533c0.003 2.061 1.673 3.731 3.733 3.733h24.533c2.061-0.003 3.731-1.673 3.733-3.733v-24.533c-0.003-2.061-1.673-3.731-3.733-3.733zM30.933 28.267c-0.002 1.472-1.195 2.665-2.667 2.667h-24.533c-1.472-0.002-2.665-1.195-2.667-2.667v-24.533c0.002-1.472 1.195-2.665 2.667-2.667h24.533c1.472 0.002 2.665 1.195 2.667 2.667z"></path>
<path d="M27.2 3.2h-22.4c-0.884 0-1.6 0.716-1.6 1.6v0.533c-0.884 0-1.6 0.716-1.6 1.6s0.716 1.6 1.6 1.6v14.933c-0.884 0-1.6 0.716-1.6 1.6s0.716 1.6 1.6 1.6v1.6c0 0.295 0.239 0.533 0.533 0.533h23.467c0.884 0 1.6-0.716 1.6-1.6v-22.4c0-0.884-0.716-1.6-1.6-1.6zM2.667 6.933c0-0.295 0.239-0.533 0.533-0.533h1.067c0.295 0 0.533 0.239 0.533 0.533s-0.239 0.533-0.533 0.533h-1.067c-0.295 0-0.533-0.239-0.533-0.533zM2.667 25.067c0-0.295 0.239-0.533 0.533-0.533h1.067c0.295 0 0.533 0.239 0.533 0.533s-0.239 0.533-0.533 0.533h-1.067c-0.295 0-0.533-0.239-0.533-0.533zM27.733 27.2c0 0.295-0.239 0.533-0.533 0.533h-22.933v-1.067c0.884 0 1.6-0.716 1.6-1.6s-0.716-1.6-1.6-1.6v-14.933c0.884 0 1.6-0.716 1.6-1.6s-0.716-1.6-1.6-1.6v-0.533c0-0.295 0.239-0.533 0.533-0.533h22.4c0.295 0 0.533 0.239 0.533 0.533z"></path>
<path d="M10.133 15.467h1.067v1.067h-1.067z"></path>
<path d="M8 15.467h1.067v1.067h-1.067z"></path>
<path d="M12.267 15.467h1.067v1.067h-1.067z"></path>
<path d="M12.267 17.6h1.067v1.067h-1.067z"></path>
<path d="M10.133 17.6h1.067v1.067h-1.067z"></path>
<path d="M8 17.6h1.067v1.067h-1.067z"></path>
<path d="M8 19.733h1.067v1.067h-1.067z"></path>
<path d="M10.133 19.733h1.067v1.067h-1.067z"></path>
<path d="M12.267 19.733h1.067v1.067h-1.067z"></path>
<path d="M13.333 11.2h-5.333c-0.295 0-0.533 0.239-0.533 0.533v2.133c0 0.295 0.239 0.533 0.533 0.533h5.333c0.295 0 0.533-0.239 0.533-0.533v-2.133c0-0.295-0.239-0.533-0.533-0.533zM12.8 13.333h-4.267v-1.067h4.267z"></path>
<path d="M23.467 9.6v-0.533c0-0.884-0.716-1.6-1.6-1.6s-1.6 0.716-1.6 1.6v0.533c-0.295 0-0.533 0.239-0.533 0.533v2.133c0 0.295 0.239 0.533 0.533 0.533h3.2c0.295 0 0.533-0.239 0.533-0.533v-2.133c0-0.295-0.239-0.533-0.533-0.533zM21.333 9.067c0-0.295 0.239-0.533 0.533-0.533s0.533 0.239 0.533 0.533v0.533h-1.067zM22.933 11.733h-2.133v-1.067h2.133z"></path>
<path d="M21.867 5.333c-2.65 0.003-4.797 2.15-4.8 4.8h-1.067v-0.533c0-0.295-0.239-0.533-0.533-0.533h-9.6c-0.295 0-0.533 0.239-0.533 0.533v12.8c0 0.295 0.239 0.533 0.533 0.533h9.6c0.295 0 0.533-0.239 0.533-0.533v-1.067h4.267v1.6c0.004 0.882 0.718 1.596 1.6 1.6 0.884 0 1.6-0.716 1.6-1.6v-2.137c0.098-0.073 0.191-0.153 0.278-0.239l0.008-0.007c0.105-0.107 0.201-0.223 0.287-0.347 0.024-0.035 0.047-0.069 0.069-0.107 0.072-0.112 0.136-0.229 0.191-0.351 0.009-0.019 0.019-0.036 0.027-0.053 0.056-0.138 0.101-0.281 0.134-0.427 0.009-0.041 0.017-0.082 0.025-0.124 0.030-0.156 0.046-0.315 0.048-0.474-0.002-1.267-0.892-2.358-2.133-2.613v-1.152c2.523-0.292 4.381-2.499 4.24-5.035s-2.233-4.522-4.773-4.533zM17.19 11.2c0.456 1.988 2.116 3.472 4.143 3.702v1.098h-5.333v-4.8zM14.933 21.867h-8.533v-11.733h8.533zM16 17.067h3.747c-0.242 0.314-0.411 0.679-0.493 1.067h-2.187v1.067h2.187c0.082 0.388 0.251 0.753 0.493 1.067h-3.747zM21.867 23.467c-0.144 0-0.282-0.059-0.38-0.164-0.099-0.097-0.154-0.231-0.153-0.37v-1.653c0.176 0.036 0.354 0.054 0.533 0.053 0.157-0.002 0.313-0.017 0.467-0.047 0.022-0.004 0.045-0.003 0.067-0.007v1.654c0 0.295-0.239 0.533-0.533 0.533zM23.467 18.667c-0.002 0.128-0.018 0.256-0.051 0.381-0.008 0.033-0.020 0.064-0.030 0.096-0.029 0.092-0.066 0.181-0.111 0.267-0.016 0.029-0.030 0.059-0.048 0.087-0.132 0.218-0.315 0.401-0.533 0.533-0.024 0.015-0.051 0.028-0.076 0.041-0.090 0.048-0.185 0.088-0.282 0.118-0.030 0.010-0.060 0.021-0.091 0.028-0.123 0.032-0.251 0.048-0.378 0.049-0.884 0-1.6-0.716-1.6-1.6s0.716-1.6 1.6-1.6 1.6 0.716 1.6 1.6zM21.867 13.867c-2.062 0-3.733-1.671-3.733-3.733s1.671-3.733 3.733-3.733 3.733 1.671 3.733 3.733c-0.003 2.061-1.673 3.731-3.733 3.733z"></path>
</svg>
