<!-- Generated by IcoMoon.io -->
<svg version="1.1" xmlns="http://www.w3.org/2000/svg" viewBox="0 0 32 32" id="settings">
<title>settings</title>
<path d="M16 10.062c-3.274 0-5.938 2.664-5.938 5.938s2.664 5.938 5.938 5.938 5.938-2.664 5.938-5.938-2.664-5.938-5.938-5.938zM16 20.062c-2.24 0-4.063-1.822-4.063-4.063s1.822-4.063 4.063-4.063 4.063 1.822 4.063 4.063-1.822 4.063-4.063 4.063z"></path>
<path d="M31.246 13.029l-3.857-0.771c-0.216-0.655-0.45-1.205-0.721-1.733l0.031 0.067 2.182-3.271c0.099-0.146 0.158-0.326 0.158-0.52 0-0.259-0.105-0.493-0.274-0.663l-2.901-2.903c-0.17-0.17-0.404-0.275-0.663-0.275-0.194 0-0.374 0.059-0.524 0.16l0.003-0.002-3.272 2.183c-0.461-0.24-1.012-0.474-1.582-0.666l-0.085-0.025-0.771-3.857c-0.089-0.433-0.467-0.754-0.919-0.754-0 0-0 0-0 0h-4.102c0 0 0 0-0 0-0.453 0-0.83 0.321-0.918 0.748l-0.001 0.006-0.771 3.857c-0.655 0.217-1.205 0.45-1.733 0.722l0.067-0.031-3.272-2.183c-0.146-0.099-0.326-0.158-0.52-0.158-0.259 0-0.493 0.105-0.663 0.275l-2.901 2.903c-0.169 0.17-0.274 0.404-0.274 0.663 0 0.194 0.059 0.374 0.16 0.524l-0.002-0.003 2.182 3.271c-0.24 0.461-0.473 1.012-0.665 1.582l-0.025 0.085-3.857 0.771c-0.433 0.089-0.754 0.467-0.754 0.919v0 4.102c0 0 0 0 0 0 0 0.453 0.321 0.831 0.748 0.918l0.006 0.001 3.857 0.771c0.216 0.655 0.45 1.205 0.721 1.734l-0.031-0.067-2.182 3.271c-0.099 0.146-0.158 0.326-0.158 0.52 0 0.259 0.105 0.493 0.274 0.663l2.901 2.903c0.17 0.17 0.404 0.275 0.663 0.275 0.194 0 0.374-0.059 0.524-0.16l-0.003 0.002 3.272-2.183c0.461 0.24 1.012 0.474 1.582 0.666l0.085 0.025 0.771 3.857c0.089 0.433 0.467 0.754 0.919 0.754 0 0 0 0 0 0h4.102c0 0 0 0 0 0 0.453 0 0.83-0.321 0.918-0.748l0.001-0.006 0.771-3.857c0.654-0.217 1.205-0.45 1.733-0.722l-0.067 0.031 3.272 2.183c0.146 0.099 0.326 0.158 0.52 0.158 0.259 0 0.493-0.105 0.663-0.275l2.901-2.903c0.169-0.17 0.274-0.404 0.274-0.663 0-0.194-0.059-0.374-0.16-0.524l0.002 0.003-2.182-3.271c0.24-0.461 0.473-1.012 0.665-1.581l0.025-0.085 3.857-0.771c0.433-0.089 0.753-0.467 0.753-0.919 0-0 0-0 0-0v0-4.102c0 0 0 0 0-0 0-0.453-0.321-0.83-0.748-0.918l-0.006-0.001zM30.125 17.283l-3.654 0.731c-0.349 0.072-0.624 0.33-0.718 0.664l-0.002 0.007c-0.224 0.811-0.546 1.589-0.958 2.313-0.077 0.133-0.123 0.293-0.123 0.464 0 0.194 0.059 0.374 0.16 0.524l-0.002-0.003 2.067 3.1-1.814 1.815-3.101-2.069c-0.146-0.099-0.326-0.158-0.52-0.158-0.171 0-0.332 0.046-0.47 0.126l0.005-0.002c-0.718 0.41-1.496 0.733-2.313 0.959-0.34 0.096-0.597 0.371-0.668 0.713l-0.001 0.006-0.731 3.653h-2.565l-0.731-3.653c-0.072-0.349-0.329-0.623-0.662-0.718l-0.007-0.002c-0.816-0.226-1.595-0.549-2.313-0.959-0.134-0.078-0.294-0.124-0.465-0.124-0.194 0-0.374 0.059-0.524 0.16l0.003-0.002-3.101 2.069-1.814-1.815 2.067-3.1c0.099-0.146 0.158-0.326 0.158-0.52 0-0.171-0.046-0.331-0.125-0.468l0.002 0.005c-0.412-0.724-0.734-1.502-0.958-2.313-0.096-0.34-0.371-0.599-0.714-0.669l-0.006-0.001-3.654-0.731v-2.565l3.654-0.731c0.349-0.072 0.624-0.33 0.718-0.664l0.002-0.007c0.224-0.811 0.546-1.589 0.958-2.313 0.077-0.133 0.123-0.293 0.123-0.464 0-0.194-0.059-0.374-0.16-0.524l0.002 0.003-2.067-3.1 1.814-1.815 3.101 2.069c0.146 0.099 0.326 0.158 0.52 0.158 0.171 0 0.332-0.046 0.47-0.126l-0.005 0.002c0.718-0.41 1.496-0.733 2.313-0.959 0.34-0.096 0.597-0.371 0.668-0.713l0.001-0.006 0.731-3.653h2.565l0.731 3.653c0.072 0.349 0.329 0.623 0.662 0.718l0.007 0.002c0.817 0.226 1.595 0.549 2.313 0.959 0.134 0.078 0.294 0.124 0.465 0.124 0.194 0 0.374-0.059 0.524-0.16l-0.003 0.002 3.101-2.069 1.814 1.815-2.067 3.1c-0.099 0.146-0.158 0.326-0.158 0.52 0 0.171 0.046 0.331 0.125 0.468l-0.002-0.005c0.412 0.724 0.734 1.502 0.958 2.313 0.096 0.34 0.371 0.598 0.714 0.669l0.006 0.001 3.654 0.731v2.565z"></path>
</svg>
