<!-- Generated by IcoMoon.io -->
<svg version="1.1" xmlns="http://www.w3.org/2000/svg" viewBox="0 0 32 32" id="shuffle">
<title>shuffle</title>
<path d="M31.64 23.231l-6-5c-0.298-0.25-0.714-0.3-1.064-0.138-0.343 0.164-0.576 0.508-0.576 0.906v3h-1.674c-1.388 0-2.656-0.704-3.392-1.88l-6.476-10.36c-1.47-2.354-4.006-3.76-6.784-3.76h-5.674v4h5.674c1.388 0 2.656 0.704 3.392 1.88l6.476 10.36c1.472 2.354 4.008 3.76 6.784 3.76h1.674v3c0 0.398 0.233 0.742 0.57 0.903l0.006 0.003c0.124 0.059 0.27 0.094 0.424 0.094h0c0.23 0 0.458-0.078 0.64-0.232l6-5c0.23-0.19 0.36-0.472 0.36-0.768s-0.13-0.578-0.36-0.768z"></path>
<path d="M31.64 7.231l-6-5c-0.298-0.248-0.714-0.3-1.064-0.136-0.352 0.162-0.576 0.516-0.576 0.904v3h-1.674c-2.778 0-5.314 1.406-6.784 3.76l-0.362 0.58 2.358 3.774 1.396-2.234c0.736-1.176 2.004-1.88 3.392-1.88h1.674v3c0 0.388 0.224 0.742 0.576 0.906 0.124 0.059 0.27 0.094 0.424 0.094h0c0.23 0 0.458-0.080 0.64-0.232l6-5c0.23-0.19 0.36-0.472 0.36-0.768s-0.13-0.578-0.36-0.768zM10.462 17.885l-1.394 2.234c-0.736 1.176-2.006 1.88-3.394 1.88h-5.674v4h5.674c2.776 0 5.312-1.406 6.784-3.76l0.362-0.58-2.358-3.774z"></path>
</svg>
