<svg aria-hidden="true" style="position: absolute; width: 0; height: 0; overflow: hidden;" version="1.1" xmlns="http://www.w3.org/2000/svg" xmlns:xlink="http://www.w3.org/1999/xlink">
<defs>
<symbol id="icon-basket" viewBox="0 0 32 32">
<title>basket</title>
<path d="M16.5 10.5h1v1h-1z"></path>
<path d="M18.5 10.5h1v1h-1z"></path>
<path d="M30.5 5.5h-22.593l-0.114-1.008c-0.258-2.275-2.181-3.991-4.471-3.991h-1.321c-0.827 0-1.5 0.673-1.5 1.5s0.673 1.5 1.5 1.5h1.322c0.764 0 1.404 0.572 1.49 1.331l1.841 16.197c0.181 1.59 0.968 3.067 2.171 4.123-0.206 0.406-0.324 0.863-0.324 1.349v4c0 0.552 0.448 1 1 1h1c0.552 0 1-0.448 1-1v-4c0.651 0 1.201-0.419 1.408-1h11.092c0.363 0 0.716-0.038 1.063-0.095 0.178 0.63 0.752 1.095 1.438 1.095v4c0 0.552 0.448 1 1 1h1c0.552 0 1-0.448 1-1v-4c0-1.024-0.528-1.956-1.351-2.501 1.435-1.194 2.351-2.991 2.351-4.999v-9.5c0.552 0 1-0.448 1-1v-2c0-0.551-0.448-1-1-1zM29.287 20.5h-4.787v-5h5v3.5c0 0.52-0.078 1.023-0.213 1.5zM23.5 20.5h-5v-5h5zM23.5 24.5h-5v-3h5zM11.5 20.5h-1.888l-0.568-5h2.456zM12.5 15.5h5v5h-5zM11.5 21.5v1.877c-0.773-0.395-1.363-1.070-1.665-1.877zM12.5 23.89v-2.39h5v3h-4.592c-0.085-0.237-0.225-0.445-0.408-0.61zM18.5 14.5v-1h3v-4h2v5zM20.5 12.5h-5v-3h5zM17.5 13.5v1h-5v-5h2v4zM11.5 14.5h-2.569l-0.568-5h3.137zM7.646 20.914l-1.84-16.197c-0.144-1.264-1.211-2.217-2.483-2.217h-1.322c-0.276 0-0.5-0.224-0.5-0.5s0.224-0.5 0.5-0.5h1.321c1.782 0 3.277 1.335 3.478 3.105l1.841 16.197c0.134 1.182 0.745 2.235 1.643 2.959-0.322 0.143-0.614 0.342-0.864 0.584-0.982-0.89-1.622-2.115-1.772-3.431zM11.5 25.5c-0.552 0-1 0.448-1 1l0.001 4h-1.001v-4c0-1.103 0.897-2 2-2 0.275 0 0.5 0.224 0.5 0.5s-0.225 0.5-0.5 0.5zM28.5 26.5v4h-1v-4c0-0.552-0.448-1-1-1-0.215 0-0.395-0.139-0.465-0.331 0.415-0.137 0.811-0.316 1.184-0.529 0.761 0.294 1.282 1.030 1.282 1.86zM24.5 24.474v-2.974h4.393c-0.84 1.637-2.474 2.8-4.393 2.974zM29.5 14.5h-5v-5h5zM30.5 8.5h-22.252l-0.227-2h22.479z"></path>
</symbol>
<symbol id="icon-clock" viewBox="0 0 32 32">
<title>clock</title>
<path d="M16 0c-8.836 0-16 7.164-16 16s7.164 16 16 16 16-7.164 16-16-7.164-16-16-16zM16 29.333c-7.364 0-13.333-5.97-13.333-13.333s5.97-13.333 13.333-13.333 13.333 5.97 13.333 13.333-5.97 13.333-13.333 13.333z"></path>
<path d="M16 5.333c-0.736 0-1.333 0.597-1.333 1.333v8h-4c-0.736 0-1.333 0.597-1.333 1.333s0.597 1.333 1.333 1.333h5.333c0.736 0 1.333-0.597 1.333-1.333v-9.333c0-0.736-0.597-1.333-1.333-1.333z"></path>
</symbol>
<symbol id="icon-compass" viewBox="0 0 32 32">
<title>compass</title>
<path d="M16.552 4.251v-1.178c0.735-0.26 1.175-1.011 1.043-1.779s-0.798-1.329-1.577-1.329c-0.779 0-1.445 0.561-1.577 1.329s0.309 1.519 1.043 1.779v1.178c-7.546 0.29-13.472 6.568-13.327 14.119s6.308 13.596 13.86 13.596c7.552 0 13.714-6.045 13.86-13.596s-5.78-13.828-13.327-14.119zM16.018 1.039c0.295 0 0.533 0.239 0.533 0.533s-0.239 0.533-0.533 0.533c-0.294 0-0.533-0.239-0.533-0.533s0.239-0.533 0.533-0.533zM16.018 30.896c-7.067 0-12.796-5.729-12.796-12.796s5.729-12.796 12.796-12.796 12.796 5.729 12.796 12.796c-0.008 7.064-5.732 12.788-12.796 12.796z"></path>
<path d="M24.009 9.368l-9.803 6.786c-0.041 0.049-0.086 0.094-0.135 0.135l-6.785 9.802c-0.146 0.212-0.12 0.498 0.062 0.68s0.468 0.208 0.68 0.062l9.803-6.786c0.041-0.049 0.086-0.094 0.135-0.135l6.785-9.802c0.146-0.211 0.12-0.497-0.062-0.68s-0.468-0.208-0.68-0.062zM9.834 24.285l4.754-6.866 2.112 2.112zM17.454 18.777l-2.112-2.112 6.862-4.749z"></path>
</symbol>
<symbol id="icon-fast-forward" viewBox="0 0 32 32">
<title>fast-forward</title>
<path d="M31.566 15.176l-16-11c-0.307-0.21-0.704-0.235-1.032-0.061-0.328 0.173-0.534 0.514-0.534 0.885v7.724l-12.434-8.548c-0.307-0.21-0.705-0.235-1.032-0.061-0.328 0.173-0.534 0.514-0.534 0.885v22c0 0.371 0.206 0.712 0.534 0.885 0.146 0.077 0.307 0.115 0.466 0.115 0.198 0 0.396-0.060 0.566-0.176l12.434-8.548v7.724c0 0.371 0.206 0.712 0.534 0.885 0.146 0.077 0.307 0.115 0.466 0.115 0.198 0 0.396-0.060 0.566-0.176l16-11c0.271-0.186 0.434-0.495 0.434-0.824s-0.162-0.638-0.434-0.824zM2 25.099v-18.197l12 8.25v1.698c0 0-12 8.25-12 8.25zM16 25.099v-18.197l13.235 9.099z"></path>
</symbol>
<symbol id="icon-heart" viewBox="0 0 32 32">
<title>heart</title>
<path d="M16 30.22c-0.456 0-0.895-0.165-1.237-0.465-1.293-1.13-2.539-2.193-3.639-3.13l-0.006-0.005c-3.224-2.747-6.008-5.12-7.945-7.457-2.165-2.613-3.174-5.090-3.174-7.796 0-2.629 0.902-5.055 2.539-6.831 1.657-1.797 3.929-2.786 6.401-2.786 1.847 0 3.539 0.584 5.028 1.736 0.751 0.581 1.433 1.293 2.033 2.123 0.6-0.83 1.281-1.541 2.033-2.123 1.489-1.152 3.181-1.736 5.028-1.736 2.471 0 4.744 0.99 6.401 2.786 1.637 1.776 2.538 4.201 2.538 6.831 0 2.706-1.008 5.184-3.174 7.796-1.937 2.337-4.721 4.71-7.944 7.457-1.102 0.938-2.35 2.002-3.645 3.136-0.342 0.299-0.782 0.464-1.237 0.464zM8.939 3.624c-1.942 0-3.725 0.775-5.023 2.182-1.317 1.428-2.042 3.403-2.042 5.56 0 2.276 0.846 4.312 2.743 6.6 1.833 2.212 4.56 4.536 7.717 7.227l0.006 0.005c1.104 0.941 2.355 2.007 3.657 3.146 1.31-1.141 2.563-2.209 3.669-3.151 3.157-2.691 5.884-5.014 7.717-7.226 1.896-2.289 2.742-4.324 2.742-6.6 0-2.157-0.725-4.132-2.042-5.56-1.297-1.407-3.081-2.182-5.023-2.182-1.422 0-2.728 0.452-3.881 1.344-1.028 0.795-1.743 1.8-2.163 2.503-0.216 0.362-0.596 0.577-1.016 0.577s-0.801-0.216-1.016-0.577c-0.419-0.703-1.135-1.708-2.163-2.503-1.153-0.892-2.459-1.344-3.881-1.344z"></path>
</symbol>
<symbol id="icon-internet" viewBox="0 0 32 32">
<title>internet</title>
<path d="M28.415 5.923q-0.086-0.109-0.18-0.218c-2.9-3.442-7.19-5.633-11.994-5.7l-0.011-0c-0.078-0.003-0.152-0.005-0.23-0.005s-0.152 0.003-0.23 0.005c-4.833 0.068-9.137 2.275-12.017 5.715l-0.020 0.025c-0.040 0.043-0.079 0.090-0.115 0.138l-0.003 0.004c-0.002 0.004-0.004 0.007-0.007 0.010l-0 0c-2.246 2.727-3.607 6.256-3.607 10.102s1.362 7.375 3.629 10.13l-0.022-0.027c0.003 0.003 0.006 0.006 0.007 0.010l0 0c0.039 0.053 0.077 0.099 0.118 0.143l-0.001-0.001 0.002 0.003c2.9 3.464 7.203 5.67 12.024 5.737l0.011 0c0.153 0.005 0.306 0.005 0.46 0 4.815-0.067 9.105-2.258 11.985-5.676l0.020-0.024q0.094-0.109 0.18-0.218c2.232-2.724 3.585-6.243 3.585-10.078s-1.353-7.354-3.607-10.106l0.022 0.028zM24.872 15.563c-0.027-2.506-0.397-4.914-1.065-7.195l0.047 0.188c1.543-0.494 2.883-1.131 4.117-1.919l-0.070 0.042c1.923 2.427 3.119 5.507 3.215 8.864l0 0.021zM16.438 0.897c2.672 0.275 4.997 3.035 6.34 7.075-1.894 0.541-4.073 0.866-6.323 0.895l-0.017 0zM15.563 8.867c-2.267-0.029-4.446-0.354-6.517-0.938l0.177 0.043c1.342-4.040 3.668-6.8 6.34-7.075zM15.563 9.742v5.82h-7.56c0.026-2.414 0.376-4.736 1.008-6.939l-0.045 0.184c1.971 0.565 4.238 0.905 6.58 0.935l0.017 0zM15.563 16.438v5.82c-2.359 0.030-4.627 0.37-6.781 0.979l0.184-0.044c-0.587-2.019-0.937-4.341-0.962-6.74l-0-0.015zM15.563 23.133v7.97c-2.672-0.275-4.997-3.035-6.34-7.075 1.894-0.541 4.073-0.866 6.323-0.895l0.017-0zM16.438 23.133c2.267 0.029 4.446 0.354 6.517 0.938l-0.177-0.043c-1.343 4.040-3.668 6.8-6.34 7.075zM16.438 22.258v-5.82h7.56c-0.026 2.415-0.376 4.738-1.008 6.942l0.045-0.184c-1.971-0.568-4.239-0.909-6.581-0.937l-0.016-0zM16.438 15.563v-5.82c2.359-0.029 4.627-0.369 6.78-0.982l-0.182 0.044c0.587 2.019 0.936 4.342 0.962 6.743l0 0.015zM27.337 5.997c-1.077 0.682-2.316 1.268-3.628 1.695l-0.117 0.033c-0.96-2.855-2.402-5.125-4.12-6.447 3.151 0.764 5.838 2.429 7.851 4.704l0.014 0.016zM12.527 1.278c-1.717 1.323-3.16 3.593-4.12 6.447-1.429-0.461-2.669-1.046-3.815-1.766l0.070 0.041c2.026-2.293 4.713-3.959 7.762-4.701l0.104-0.021zM4.098 6.675c1.164 0.748 2.504 1.387 3.924 1.848l0.123 0.035c-0.621 2.093-0.991 4.5-1.017 6.99l-0 0.015h-6.245c0.096-3.378 1.292-6.46 3.239-8.919l-0.024 0.031zM7.128 16.438c0.027 2.505 0.397 4.912 1.065 7.192l-0.047-0.188v0.003c-1.543 0.493-2.883 1.131-4.117 1.921l0.069-0.041c-1.923-2.427-3.119-5.509-3.215-8.866l-0-0.021zM4.662 26c1.076-0.679 2.316-1.264 3.626-1.692l0.119-0.033c0.96 2.855 2.402 5.125 4.12 6.447-3.152-0.764-5.839-2.43-7.851-4.706l-0.014-0.016zM19.473 30.723c1.718-1.323 3.16-3.593 4.12-6.448 1.429 0.459 2.668 1.045 3.813 1.768l-0.068-0.040c-2.027 2.291-4.714 3.956-7.761 4.699l-0.104 0.021zM27.902 25.323c-1.164-0.747-2.504-1.384-3.924-1.843l-0.123-0.034c0.621-2.093 0.991-4.502 1.017-6.993l0-0.015h6.245c-0.096 3.378-1.292 6.458-3.239 8.916l0.024-0.031z"></path>
</symbol>
<symbol id="icon-mail" viewBox="0 0 32 32">
<title>mail</title>
<path d="M29.188 3.813h-26.375c-1.549 0-2.813 1.262-2.813 2.813v18.75c0 1.545 1.258 2.813 2.813 2.813h26.375c1.545 0 2.813-1.258 2.813-2.813v-18.75c0-1.545-1.258-2.813-2.813-2.813zM28.799 5.688l-12.739 12.74-12.85-12.74h25.589zM1.875 24.987v-17.982l9.030 8.953-9.030 9.030zM3.201 26.313l9.036-9.036 3.166 3.139c0.367 0.363 0.958 0.362 1.323-0.003l3.087-3.087 8.987 8.987h-25.598zM30.125 24.987l-8.987-8.987 8.987-8.987v17.973z"></path>
</symbol>
<symbol id="icon-phone" viewBox="0 0 32 32">
<title>phone</title>
<path d="M29.432 21.004c-1.959 0-3.883-0.306-5.706-0.909-0.909-0.31-1.944-0.069-2.537 0.535l-3.598 2.716c-4.173-2.227-6.743-4.797-8.94-8.938l2.636-3.504c0.685-0.684 0.931-1.683 0.636-2.621-0.605-1.832-0.912-3.755-0.912-5.715 0-1.416-1.152-2.568-2.568-2.568h-5.877c-1.416 0-2.568 1.152-2.568 2.568 0 16.229 13.203 29.432 29.432 29.432 1.416 0 2.568-1.152 2.568-2.568v-5.86c-0-1.416-1.152-2.568-2.568-2.568zM30.222 29.432c0 0.436-0.354 0.79-0.79 0.79-15.249 0-27.654-12.405-27.654-27.654 0-0.436 0.354-0.79 0.79-0.79h5.877c0.436 0 0.79 0.354 0.79 0.79 0 2.15 0.338 4.26 0.998 6.26 0.092 0.295 0.017 0.601-0.281 0.912l-3.056 4.047c-0.112 0.147-0.18 0.334-0.18 0.536 0 0.147 0.036 0.285 0.099 0.407l-0.002-0.005c2.494 4.902 5.524 7.932 10.461 10.462 0.3 0.157 0.668 0.124 0.941-0.082l4.14-3.136c0.142-0.141 0.338-0.229 0.554-0.229 0.090 0 0.177 0.015 0.257 0.043l-0.006-0.002c2.013 0.665 4.123 1.002 6.273 1.002 0.436 0 0.79 0.354 0.79 0.79v5.86z"></path>
</symbol>
<symbol id="icon-safe-box" viewBox="0 0 32 32">
<title>safe-box</title>
<path d="M28.267 0h-24.533c-2.061 0.003-3.731 1.673-3.733 3.733v24.533c0.003 2.061 1.673 3.731 3.733 3.733h24.533c2.061-0.003 3.731-1.673 3.733-3.733v-24.533c-0.003-2.061-1.673-3.731-3.733-3.733zM30.933 28.267c-0.002 1.472-1.195 2.665-2.667 2.667h-24.533c-1.472-0.002-2.665-1.195-2.667-2.667v-24.533c0.002-1.472 1.195-2.665 2.667-2.667h24.533c1.472 0.002 2.665 1.195 2.667 2.667z"></path>
<path d="M27.2 3.2h-22.4c-0.884 0-1.6 0.716-1.6 1.6v0.533c-0.884 0-1.6 0.716-1.6 1.6s0.716 1.6 1.6 1.6v14.933c-0.884 0-1.6 0.716-1.6 1.6s0.716 1.6 1.6 1.6v1.6c0 0.295 0.239 0.533 0.533 0.533h23.467c0.884 0 1.6-0.716 1.6-1.6v-22.4c0-0.884-0.716-1.6-1.6-1.6zM2.667 6.933c0-0.295 0.239-0.533 0.533-0.533h1.067c0.295 0 0.533 0.239 0.533 0.533s-0.239 0.533-0.533 0.533h-1.067c-0.295 0-0.533-0.239-0.533-0.533zM2.667 25.067c0-0.295 0.239-0.533 0.533-0.533h1.067c0.295 0 0.533 0.239 0.533 0.533s-0.239 0.533-0.533 0.533h-1.067c-0.295 0-0.533-0.239-0.533-0.533zM27.733 27.2c0 0.295-0.239 0.533-0.533 0.533h-22.933v-1.067c0.884 0 1.6-0.716 1.6-1.6s-0.716-1.6-1.6-1.6v-14.933c0.884 0 1.6-0.716 1.6-1.6s-0.716-1.6-1.6-1.6v-0.533c0-0.295 0.239-0.533 0.533-0.533h22.4c0.295 0 0.533 0.239 0.533 0.533z"></path>
<path d="M10.133 15.467h1.067v1.067h-1.067z"></path>
<path d="M8 15.467h1.067v1.067h-1.067z"></path>
<path d="M12.267 15.467h1.067v1.067h-1.067z"></path>
<path d="M12.267 17.6h1.067v1.067h-1.067z"></path>
<path d="M10.133 17.6h1.067v1.067h-1.067z"></path>
<path d="M8 17.6h1.067v1.067h-1.067z"></path>
<path d="M8 19.733h1.067v1.067h-1.067z"></path>
<path d="M10.133 19.733h1.067v1.067h-1.067z"></path>
<path d="M12.267 19.733h1.067v1.067h-1.067z"></path>
<path d="M13.333 11.2h-5.333c-0.295 0-0.533 0.239-0.533 0.533v2.133c0 0.295 0.239 0.533 0.533 0.533h5.333c0.295 0 0.533-0.239 0.533-0.533v-2.133c0-0.295-0.239-0.533-0.533-0.533zM12.8 13.333h-4.267v-1.067h4.267z"></path>
<path d="M23.467 9.6v-0.533c0-0.884-0.716-1.6-1.6-1.6s-1.6 0.716-1.6 1.6v0.533c-0.295 0-0.533 0.239-0.533 0.533v2.133c0 0.295 0.239 0.533 0.533 0.533h3.2c0.295 0 0.533-0.239 0.533-0.533v-2.133c0-0.295-0.239-0.533-0.533-0.533zM21.333 9.067c0-0.295 0.239-0.533 0.533-0.533s0.533 0.239 0.533 0.533v0.533h-1.067zM22.933 11.733h-2.133v-1.067h2.133z"></path>
<path d="M21.867 5.333c-2.65 0.003-4.797 2.15-4.8 4.8h-1.067v-0.533c0-0.295-0.239-0.533-0.533-0.533h-9.6c-0.295 0-0.533 0.239-0.533 0.533v12.8c0 0.295 0.239 0.533 0.533 0.533h9.6c0.295 0 0.533-0.239 0.533-0.533v-1.067h4.267v1.6c0.004 0.882 0.718 1.596 1.6 1.6 0.884 0 1.6-0.716 1.6-1.6v-2.137c0.098-0.073 0.191-0.153 0.278-0.239l0.008-0.007c0.105-0.107 0.201-0.223 0.287-0.347 0.024-0.035 0.047-0.069 0.069-0.107 0.072-0.112 0.136-0.229 0.191-0.351 0.009-0.019 0.019-0.036 0.027-0.053 0.056-0.138 0.101-0.281 0.134-0.427 0.009-0.041 0.017-0.082 0.025-0.124 0.030-0.156 0.046-0.315 0.048-0.474-0.002-1.267-0.892-2.358-2.133-2.613v-1.152c2.523-0.292 4.381-2.499 4.24-5.035s-2.233-4.522-4.773-4.533zM17.19 11.2c0.456 1.988 2.116 3.472 4.143 3.702v1.098h-5.333v-4.8zM14.933 21.867h-8.533v-11.733h8.533zM16 17.067h3.747c-0.242 0.314-0.411 0.679-0.493 1.067h-2.187v1.067h2.187c0.082 0.388 0.251 0.753 0.493 1.067h-3.747zM21.867 23.467c-0.144 0-0.282-0.059-0.38-0.164-0.099-0.097-0.154-0.231-0.153-0.37v-1.653c0.176 0.036 0.354 0.054 0.533 0.053 0.157-0.002 0.313-0.017 0.467-0.047 0.022-0.004 0.045-0.003 0.067-0.007v1.654c0 0.295-0.239 0.533-0.533 0.533zM23.467 18.667c-0.002 0.128-0.018 0.256-0.051 0.381-0.008 0.033-0.020 0.064-0.030 0.096-0.029 0.092-0.066 0.181-0.111 0.267-0.016 0.029-0.030 0.059-0.048 0.087-0.132 0.218-0.315 0.401-0.533 0.533-0.024 0.015-0.051 0.028-0.076 0.041-0.090 0.048-0.185 0.088-0.282 0.118-0.030 0.010-0.060 0.021-0.091 0.028-0.123 0.032-0.251 0.048-0.378 0.049-0.884 0-1.6-0.716-1.6-1.6s0.716-1.6 1.6-1.6 1.6 0.716 1.6 1.6zM21.867 13.867c-2.062 0-3.733-1.671-3.733-3.733s1.671-3.733 3.733-3.733 3.733 1.671 3.733 3.733c-0.003 2.061-1.673 3.731-3.733 3.733z"></path>
</symbol>
<symbol id="icon-settings" viewBox="0 0 32 32">
<title>settings</title>
<path d="M16 10.062c-3.274 0-5.938 2.664-5.938 5.938s2.664 5.938 5.938 5.938 5.938-2.664 5.938-5.938-2.664-5.938-5.938-5.938zM16 20.062c-2.24 0-4.063-1.822-4.063-4.063s1.822-4.063 4.063-4.063 4.063 1.822 4.063 4.063-1.822 4.063-4.063 4.063z"></path>
<path d="M31.246 13.029l-3.857-0.771c-0.216-0.655-0.45-1.205-0.721-1.733l0.031 0.067 2.182-3.271c0.099-0.146 0.158-0.326 0.158-0.52 0-0.259-0.105-0.493-0.274-0.663l-2.901-2.903c-0.17-0.17-0.404-0.275-0.663-0.275-0.194 0-0.374 0.059-0.524 0.16l0.003-0.002-3.272 2.183c-0.461-0.24-1.012-0.474-1.582-0.666l-0.085-0.025-0.771-3.857c-0.089-0.433-0.467-0.754-0.919-0.754-0 0-0 0-0 0h-4.102c0 0 0 0-0 0-0.453 0-0.83 0.321-0.918 0.748l-0.001 0.006-0.771 3.857c-0.655 0.217-1.205 0.45-1.733 0.722l0.067-0.031-3.272-2.183c-0.146-0.099-0.326-0.158-0.52-0.158-0.259 0-0.493 0.105-0.663 0.275l-2.901 2.903c-0.169 0.17-0.274 0.404-0.274 0.663 0 0.194 0.059 0.374 0.16 0.524l-0.002-0.003 2.182 3.271c-0.24 0.461-0.473 1.012-0.665 1.582l-0.025 0.085-3.857 0.771c-0.433 0.089-0.754 0.467-0.754 0.919v0 4.102c0 0 0 0 0 0 0 0.453 0.321 0.831 0.748 0.918l0.006 0.001 3.857 0.771c0.216 0.655 0.45 1.205 0.721 1.734l-0.031-0.067-2.182 3.271c-0.099 0.146-0.158 0.326-0.158 0.52 0 0.259 0.105 0.493 0.274 0.663l2.901 2.903c0.17 0.17 0.404 0.275 0.663 0.275 0.194 0 0.374-0.059 0.524-0.16l-0.003 0.002 3.272-2.183c0.461 0.24 1.012 0.474 1.582 0.666l0.085 0.025 0.771 3.857c0.089 0.433 0.467 0.754 0.919 0.754 0 0 0 0 0 0h4.102c0 0 0 0 0 0 0.453 0 0.83-0.321 0.918-0.748l0.001-0.006 0.771-3.857c0.654-0.217 1.205-0.45 1.733-0.722l-0.067 0.031 3.272 2.183c0.146 0.099 0.326 0.158 0.52 0.158 0.259 0 0.493-0.105 0.663-0.275l2.901-2.903c0.169-0.17 0.274-0.404 0.274-0.663 0-0.194-0.059-0.374-0.16-0.524l0.002 0.003-2.182-3.271c0.24-0.461 0.473-1.012 0.665-1.581l0.025-0.085 3.857-0.771c0.433-0.089 0.753-0.467 0.753-0.919 0-0 0-0 0-0v0-4.102c0 0 0 0 0-0 0-0.453-0.321-0.83-0.748-0.918l-0.006-0.001zM30.125 17.283l-3.654 0.731c-0.349 0.072-0.624 0.33-0.718 0.664l-0.002 0.007c-0.224 0.811-0.546 1.589-0.958 2.313-0.077 0.133-0.123 0.293-0.123 0.464 0 0.194 0.059 0.374 0.16 0.524l-0.002-0.003 2.067 3.1-1.814 1.815-3.101-2.069c-0.146-0.099-0.326-0.158-0.52-0.158-0.171 0-0.332 0.046-0.47 0.126l0.005-0.002c-0.718 0.41-1.496 0.733-2.313 0.959-0.34 0.096-0.597 0.371-0.668 0.713l-0.001 0.006-0.731 3.653h-2.565l-0.731-3.653c-0.072-0.349-0.329-0.623-0.662-0.718l-0.007-0.002c-0.816-0.226-1.595-0.549-2.313-0.959-0.134-0.078-0.294-0.124-0.465-0.124-0.194 0-0.374 0.059-0.524 0.16l0.003-0.002-3.101 2.069-1.814-1.815 2.067-3.1c0.099-0.146 0.158-0.326 0.158-0.52 0-0.171-0.046-0.331-0.125-0.468l0.002 0.005c-0.412-0.724-0.734-1.502-0.958-2.313-0.096-0.34-0.371-0.599-0.714-0.669l-0.006-0.001-3.654-0.731v-2.565l3.654-0.731c0.349-0.072 0.624-0.33 0.718-0.664l0.002-0.007c0.224-0.811 0.546-1.589 0.958-2.313 0.077-0.133 0.123-0.293 0.123-0.464 0-0.194-0.059-0.374-0.16-0.524l0.002 0.003-2.067-3.1 1.814-1.815 3.101 2.069c0.146 0.099 0.326 0.158 0.52 0.158 0.171 0 0.332-0.046 0.47-0.126l-0.005 0.002c0.718-0.41 1.496-0.733 2.313-0.959 0.34-0.096 0.597-0.371 0.668-0.713l0.001-0.006 0.731-3.653h2.565l0.731 3.653c0.072 0.349 0.329 0.623 0.662 0.718l0.007 0.002c0.817 0.226 1.595 0.549 2.313 0.959 0.134 0.078 0.294 0.124 0.465 0.124 0.194 0 0.374-0.059 0.524-0.16l-0.003 0.002 3.101-2.069 1.814 1.815-2.067 3.1c-0.099 0.146-0.158 0.326-0.158 0.52 0 0.171 0.046 0.331 0.125 0.468l-0.002-0.005c0.412 0.724 0.734 1.502 0.958 2.313 0.096 0.34 0.371 0.598 0.714 0.669l0.006 0.001 3.654 0.731v2.565z"></path>
</symbol>
<symbol id="icon-shuffle" viewBox="0 0 32 32">
<title>shuffle</title>
<path d="M31.64 23.231l-6-5c-0.298-0.25-0.714-0.3-1.064-0.138-0.343 0.164-0.576 0.508-0.576 0.906v3h-1.674c-1.388 0-2.656-0.704-3.392-1.88l-6.476-10.36c-1.47-2.354-4.006-3.76-6.784-3.76h-5.674v4h5.674c1.388 0 2.656 0.704 3.392 1.88l6.476 10.36c1.472 2.354 4.008 3.76 6.784 3.76h1.674v3c0 0.398 0.233 0.742 0.57 0.903l0.006 0.003c0.124 0.059 0.27 0.094 0.424 0.094h0c0.23 0 0.458-0.078 0.64-0.232l6-5c0.23-0.19 0.36-0.472 0.36-0.768s-0.13-0.578-0.36-0.768z"></path>
<path d="M31.64 7.231l-6-5c-0.298-0.248-0.714-0.3-1.064-0.136-0.352 0.162-0.576 0.516-0.576 0.904v3h-1.674c-2.778 0-5.314 1.406-6.784 3.76l-0.362 0.58 2.358 3.774 1.396-2.234c0.736-1.176 2.004-1.88 3.392-1.88h1.674v3c0 0.388 0.224 0.742 0.576 0.906 0.124 0.059 0.27 0.094 0.424 0.094h0c0.23 0 0.458-0.080 0.64-0.232l6-5c0.23-0.19 0.36-0.472 0.36-0.768s-0.13-0.578-0.36-0.768zM10.462 17.885l-1.394 2.234c-0.736 1.176-2.006 1.88-3.394 1.88h-5.674v4h5.674c2.776 0 5.312-1.406 6.784-3.76l0.362-0.58-2.358-3.774z"></path>
</symbol>
</defs>
</svg>
